<?xml version="1.0" encoding="UTF-8" standalone="no"?>
<!-- Created with Inkscape (http://www.inkscape.org/) -->

<svg
   xmlns:dc="http://purl.org/dc/elements/1.1/"
   xmlns:cc="http://creativecommons.org/ns#"
   xmlns:rdf="http://www.w3.org/1999/02/22-rdf-syntax-ns#"
   xmlns:svg="http://www.w3.org/2000/svg"
   xmlns="http://www.w3.org/2000/svg"
   xmlns:sodipodi="http://sodipodi.sourceforge.net/DTD/sodipodi-0.dtd"
   xmlns:inkscape="http://www.inkscape.org/namespaces/inkscape"
   version="1.1"
   id="svg10"
   xml:space="preserve"
   width="101.44022"
   height="135.252"
   viewBox="0 0 101.44022 135.252"
   sodipodi:docname="hkiiconsijainti.svg"
   inkscape:version="0.92.4 (5da689c313, 2019-01-14)"><metadata
     id="metadata16"><rdf:RDF><cc:Work
         rdf:about=""><dc:format>image/svg+xml</dc:format><dc:type
           rdf:resource="http://purl.org/dc/dcmitype/StillImage" /><dc:title></dc:title></cc:Work></rdf:RDF></metadata><defs
     id="defs14"><clipPath
       clipPathUnits="userSpaceOnUse"
       id="clipPath26"><path
         d="M 0,0 H 141.732 V 141.732 H 0 Z"
         id="path24"
         inkscape:connector-curvature="0" /></clipPath></defs><sodipodi:namedview
     pagecolor="#ffffff"
     bordercolor="#666666"
     borderopacity="1"
     objecttolerance="10"
     gridtolerance="10"
     guidetolerance="10"
     inkscape:pageopacity="0"
     inkscape:pageshadow="2"
     inkscape:window-width="1920"
     inkscape:window-height="1017"
     id="namedview12"
     showgrid="false"
     inkscape:zoom="4.4873424"
     inkscape:cx="50.719982"
     inkscape:cy="67.626002"
     inkscape:window-x="-8"
     inkscape:window-y="-8"
     inkscape:window-maximized="1"
     inkscape:current-layer="g18" /><g
     id="g18"
     inkscape:groupmode="layer"
     inkscape:label="Helsinki_icon_set_Sijainti"
     transform="matrix(1.3333333,0,0,-1.3333333,-43.768017,162.114)"><g
       id="g20"><g
         id="g22"
         clip-path="url(#clipPath26)"><g
           id="g28"
           transform="translate(70.866,98.7621)"><path
             d="m 0,0 c -8.404,0 -15.216,-6.813 -15.216,-15.216 0,-8.404 6.812,-15.216 15.216,-15.216 8.404,0 15.216,6.812 15.216,15.216 C 15.216,-6.813 8.404,0 0,0 m 0,-22.824 c -4.195,0 -7.608,3.413 -7.608,7.608 0,4.195 3.413,7.608 7.608,7.608 4.195,0 7.608,-3.413 7.608,-7.608 0,-4.195 -3.413,-7.608 -7.608,-7.608"
             style="fill:#231f20;fill-opacity:1;fill-rule:nonzero;stroke:none"
             id="path30"
             inkscape:connector-curvature="0" /></g><g
           id="g32"
           transform="translate(98.0316,110.4445)"><path
             d="m 0,0 c -7.502,7.428 -17.333,11.141 -27.166,11.141 -9.831,0 -19.664,-3.713 -27.165,-11.141 -15.003,-14.856 -13.987,-37.999 0,-53.797 14.36,-16.219 22.04,-26.339 27.165,-36.501 C -22.015,-80.136 -14.36,-70.016 0,-53.797 13.987,-37.999 15.003,-14.856 0,0 m -5.696,-48.754 c -9.845,-11.119 -16.526,-19.365 -21.465,-26.654 -4.926,7.267 -11.613,15.517 -21.474,26.654 -5.672,6.408 -8.854,14.33 -8.96,22.31 -0.106,8.075 2.873,15.35 8.617,21.038 5.822,5.765 13.569,8.939 21.812,8.939 8.244,0 15.991,-3.174 21.813,-8.939 5.744,-5.688 8.723,-12.963 8.617,-21.038 -0.106,-7.979 -3.288,-15.902 -8.96,-22.31"
             style="fill:#231f20;fill-opacity:1;fill-rule:nonzero;stroke:none"
             id="path34"
             inkscape:connector-curvature="0" /></g></g></g><path
       style="fill:#ffffff;stroke-width:0.22284906"
       d="M 50.073205,133.77874 C 49.112578,131.79557 45.984232,126.48819 43.866687,123.24912 37.948168,114.19594 30.253233,104.43067 17.979486,90.396927 13.164747,84.891778 11.41643,82.720602 9.6206742,80.016405 4.9397331,72.967455 2.0242883,65.544188 0.64960055,57.174377 0.04201061,53.475053 0.10489364,45.012376 0.76695928,41.380462 2.3064939,32.934994 5.5023833,25.832489 10.704567,19.295251 18.823938,9.0921774 30.939189,2.2694976 43.966973,0.56359193 47.975932,0.03864413 54.380052,0.08167883 58.185425,0.65913775 71.894428,2.7394555 83.64568,9.7645544 91.936803,20.83629 c 8.552917,11.42132 11.456687,26.813335 7.803463,41.363807 -1.953084,7.778968 -5.451688,14.930013 -10.406442,21.270468 -0.86202,1.103103 -3.497895,4.211847 -5.857498,6.908321 -16.071914,18.366424 -26.063835,31.794694 -31.642099,42.524224 -0.551552,1.06089 -1.05805,1.93007 -1.125551,1.93152 -0.0675,0.002 -0.353465,-0.4737 -0.635471,-1.05589 z m 2.110819,-20.27651 C 56.437747,107.23491 65.039731,96.447516 73.89046,86.281097 75.42575,84.517581 77.818371,81.759824 79.207393,80.152748 87.891344,70.105565 91.837121,59.248807 91.24379,47.034745 90.756838,37.010551 86.106165,27.464865 78.353264,20.576436 64.217978,8.0172777 43.329547,6.5670832 27.655104,17.05668 17.171209,24.072677 10.800149,35.00488 10.198555,47.010657 9.5876194,59.202869 13.544841,70.101195 22.23257,80.152748 c 1.389022,1.607076 3.783778,4.364833 5.321677,6.128349 8.651108,9.920259 17.519832,21.050583 21.953253,27.551533 0.605581,0.88799 1.158184,1.61504 1.228005,1.61565 0.06982,6.7e-4 0.721655,-0.8751 1.448519,-1.94605 z"
       id="path36"
       inkscape:connector-curvature="0"
       transform="matrix(0.75000002,0,0,-0.75000002,32.826014,121.5855)" /><path
       style="fill:#ffffff;stroke-width:0.22284906"
       d="M 47.042972,70.564012 C 32.686742,67.752687 25.909723,51.431384 34.08065,39.346452 c 2.598051,-3.842559 6.436649,-6.598239 11.228147,-8.06054 1.76258,-0.537916 2.300219,-0.597258 5.411185,-0.597258 3.110966,0 3.648605,0.05934 5.411185,0.597258 8.212052,2.506209 13.695273,9.001879 14.623161,17.32326 1.108355,9.939813 -5.272469,19.018477 -15.268354,21.723875 -1.812645,0.490596 -6.466998,0.61792 -8.443002,0.230965 z m 6.911155,-10.1593 c 3.388516,-1.165819 5.765426,-3.756152 6.684494,-7.284695 0.825237,-3.168299 -0.05258,-6.670112 -2.315092,-9.235414 -3.916229,-4.440338 -11.290866,-4.440338 -15.207095,0 -4.822044,5.467378 -2.695471,13.900728 4.146904,16.445376 1.818567,0.676318 4.844033,0.710111 6.690789,0.07473 z"
       id="path38"
       inkscape:connector-curvature="0"
       transform="matrix(0.75000002,0,0,-0.75000002,32.826014,121.5855)" /></g></svg>