<?xml version="1.0" encoding="UTF-8" standalone="no"?>
<!-- Created with Inkscape (http://www.inkscape.org/) -->

<svg
   xmlns:dc="http://purl.org/dc/elements/1.1/"
   xmlns:cc="http://creativecommons.org/ns#"
   xmlns:rdf="http://www.w3.org/1999/02/22-rdf-syntax-ns#"
   xmlns:svg="http://www.w3.org/2000/svg"
   xmlns="http://www.w3.org/2000/svg"
   xmlns:sodipodi="http://sodipodi.sourceforge.net/DTD/sodipodi-0.dtd"
   xmlns:inkscape="http://www.inkscape.org/namespaces/inkscape"
   version="1.1"
   id="svg40"
   xml:space="preserve"
   width="114.58933"
   height="131.43947"
   viewBox="0 0 114.58933 131.43947"
   sodipodi:docname="hkiiconperson.svg"
   inkscape:version="0.92.4 (5da689c313, 2019-01-14)"><metadata
     id="metadata46"><rdf:RDF><cc:Work
         rdf:about=""><dc:format>image/svg+xml</dc:format><dc:type
           rdf:resource="http://purl.org/dc/dcmitype/StillImage" /><dc:title></dc:title></cc:Work></rdf:RDF></metadata><defs
     id="defs44"><clipPath
       clipPathUnits="userSpaceOnUse"
       id="clipPath56"><path
         d="M 0,0 H 141.732 V 141.732 H 0 Z"
         id="path54"
         inkscape:connector-curvature="0" /></clipPath></defs><sodipodi:namedview
     pagecolor="#ffffff"
     bordercolor="#666666"
     borderopacity="1"
     objecttolerance="10"
     gridtolerance="10"
     guidetolerance="10"
     inkscape:pageopacity="0"
     inkscape:pageshadow="2"
     inkscape:window-width="1920"
     inkscape:window-height="1017"
     id="namedview42"
     showgrid="false"
     inkscape:zoom="2.4976717"
     inkscape:cx="94.960817"
     inkscape:cy="50.150752"
     inkscape:window-x="-8"
     inkscape:window-y="-8"
     inkscape:window-maximized="1"
     inkscape:current-layer="g48" /><g
     id="g48"
     inkscape:groupmode="layer"
     inkscape:label="Helsinki_icon_set_Log in"
     transform="matrix(1.3333333,0,0,-1.3333333,-37.193199,160.20813)"><g
       id="g50"><g
         id="g52"
         clip-path="url(#clipPath56)"><g
           id="g58"
           transform="translate(70.8663,112.5731)"><path
             d="m 0,0 c 8.711,0 15.798,-7.087 15.798,-15.798 0,-8.711 -7.087,-15.798 -15.798,-15.798 -8.711,0 -15.798,7.087 -15.798,15.798 C -15.798,-7.087 -8.711,0 0,0 m 0,7.583 c -12.913,0 -23.381,-10.468 -23.381,-23.381 0,-12.913 10.468,-23.381 23.381,-23.381 12.913,0 23.381,10.468 23.381,23.381 C 23.381,-2.885 12.913,7.583 0,7.583"
             style="fill:#231f20;fill-opacity:1;fill-rule:nonzero;stroke:none"
             id="path60"
             inkscape:connector-curvature="0" /></g><g
           id="g62"
           transform="translate(91.0879,59.4915)"><path
             d="m 0,0 c 8.363,0 15.166,-6.803 15.166,-15.166 v -15.166 h -70.775 v 15.164 c 0,8.364 6.804,15.168 15.167,15.168 z m 0,7.583 h -40.442 c -12.565,0 -22.751,-10.186 -22.751,-22.751 v -22.747 h 85.942 v 22.749 C 22.749,-2.602 12.564,7.583 0,7.583"
             style="fill:#231f20;fill-opacity:1;fill-rule:nonzero;stroke:none"
             id="path64"
             inkscape:connector-curvature="0" /></g></g></g><path
       style="fill:#ffffff;stroke-width:0.40037286"
       d="M 54.523156,62.071083 C 49.925951,61.291453 48.336929,60.891052 45.744566,59.859059 36.862884,56.323362 29.778734,48.264712 27.328378,38.909523 26.200536,34.603545 26.187247,28.031689 27.2975,23.639011 29.522713,14.835037 35.648129,7.3367969 43.913275,3.2993228 47.814705,1.3934977 50.833836,0.64818023 55.742628,0.37907076 64.471217,-0.09944733 72.622312,2.9306491 78.787202,8.9456849 c 6.187915,6.0375021 9.358388,13.6120301 9.364469,22.3725081 0.0114,16.417507 -12.62551,29.6987 -29.224413,30.714394 -1.871743,0.114534 -3.853589,0.131855 -4.404102,0.03848 z M 62.648994,51.670484 C 71.484429,49.380992 77.791907,41.70843 78.413554,32.494097 79.145311,21.647707 71.257129,11.884491 60.398039,10.196266 49.87077,8.5596285 39.466289,15.546579 36.717931,26.098236 c -2.827066,10.853838 4.100948,22.626757 15.047587,25.570675 2.886712,0.776335 7.890788,0.77706 10.883476,0.0016 z"
       id="path66"
       inkscape:connector-curvature="0"
       transform="matrix(0.75000002,0,0,-0.75000002,27.8949,120.1561)" /><path
       style="fill:#ffffff;stroke-width:0.40037286"
       d="M 0.17120366,113.65886 C 0.35002941,93.842951 0.39419698,93.516432 3.7847426,86.944931 6.1998142,82.264078 11.79839,76.735469 16.487733,74.400693 c 6.868282,-3.419647 5.556759,-3.319638 41.872084,-3.192915 l 31.996712,0.111654 3.507751,1.255063 c 4.956331,1.773359 7.57922,3.451211 11.49446,7.352954 3.83905,3.825819 5.63572,6.604545 7.28637,11.269095 1.63639,4.62424 1.92702,8.397267 1.93069,25.064746 l 0.003,14.91389 H 57.296111 0.01313032 Z M 104.56977,110.03953 c 0,-12.517251 -0.1952,-14.077274 -2.3053,-18.423783 -1.62505,-3.347371 -5.371234,-6.977008 -8.952757,-8.674231 -1.625354,-0.770226 -3.925656,-1.583315 -5.111789,-1.806866 -1.334467,-0.251507 -13.245676,-0.406456 -31.245059,-0.406456 -31.67693,0 -31.16461,-0.03282 -35.989746,2.305299 -2.769701,1.342114 -7.096672,5.546787 -8.576977,8.334556 -2.083841,3.924375 -2.306375,5.706605 -2.306375,18.471301 v 11.72688 h 47.243999 47.244004 z"
       id="path68"
       inkscape:connector-curvature="0"
       transform="matrix(0.75000002,0,0,-0.75000002,27.8949,120.1561)" /></g></svg>