<svg id="379fdb4b-84e8-4a40-a6ae-830d779daffd" data-name="Layer 1" xmlns="http://www.w3.org/2000/svg" viewBox="0 0 197.76 60"><defs><style>.\34 4be992c-3ec5-4b31-9a91-9cbd9f5278dc{fill:#07425c;}.dec34359-5b90-4f48-8316-fd8f4d4037d2{fill:#fff;}</style></defs><title>Artboard 12</title><path class="44be992c-3ec5-4b31-9a91-9cbd9f5278dc" d="M197.91,60.35H.15V.11H197.91c0,.52,0,1,0,1.56V58.8C198,59.32,197.93,59.84,197.91,60.35Z"/><path class="dec34359-5b90-4f48-8316-fd8f4d4037d2" d="M81.23,34.73H73.46l-2,4.44h-3l9-19.43,8.66,19.43h-3Zm-1.12-2.59-2.69-6.22L74.6,32.14Z"/><path class="dec34359-5b90-4f48-8316-fd8f4d4037d2" d="M101,21.87v3.27a7.52,7.52,0,0,0-4.91-2,6.23,6.23,0,0,0-4.71,2,6.89,6.89,0,0,0-1.93,4.93,6.72,6.72,0,0,0,1.93,4.85,6.33,6.33,0,0,0,4.72,2,5.68,5.68,0,0,0,2.46-.48,7.12,7.12,0,0,0,1.17-.63,13.67,13.67,0,0,0,1.27-1v3.33A9.83,9.83,0,0,1,96,39.5a9.34,9.34,0,0,1-9.38-9.39,9.48,9.48,0,0,1,2.29-6.23,9.12,9.12,0,0,1,7.3-3.35A9.22,9.22,0,0,1,101,21.87Z"/><path class="dec34359-5b90-4f48-8316-fd8f4d4037d2" d="M115.5,34.73h-7.77l-2,4.44h-2.95l9-19.43,8.66,19.43h-3Zm-1.12-2.59-2.69-6.22-2.82,6.22Z"/><path class="dec34359-5b90-4f48-8316-fd8f4d4037d2" d="M122.67,39.17V20.89h3.8a13.9,13.9,0,0,1,4.33.54,8.26,8.26,0,0,1,3.09,1.81A8.8,8.8,0,0,1,136.7,30a8.71,8.71,0,0,1-2.93,6.82,8.55,8.55,0,0,1-3.08,1.81,13.84,13.84,0,0,1-4.26.51Zm2.73-2.59h1.24a10.5,10.5,0,0,0,3.06-.39,6.17,6.17,0,0,0,2.21-1.32,6.26,6.26,0,0,0,2-4.84,6.38,6.38,0,0,0-2-4.88,7.55,7.55,0,0,0-5.3-1.67H125.4Z"/><path class="dec34359-5b90-4f48-8316-fd8f4d4037d2" d="M150.15,23.48h-7.27v4.39h7.06v2.6h-7.06v6.11h7.27v2.59h-10V20.89h10Z"/><path class="dec34359-5b90-4f48-8316-fd8f4d4037d2" d="M153.11,39.17l3.82-19.66,6.22,14.21,6.46-14.21L173,39.17h-2.81l-1.75-11L163.11,40l-5.22-11.89-1.95,11.05Z"/><path class="dec34359-5b90-4f48-8316-fd8f4d4037d2" d="M180.54,31.27l-5.92-10.38h3.15l4.15,7.3,4.16-7.3h3.15l-5.95,10.38v7.9h-2.74Z"/><rect class="dec34359-5b90-4f48-8316-fd8f4d4037d2" x="23.2" y="40.28" width="23.8" height="5.44" transform="translate(-20.13 37.41) rotate(-45)"/><path class="dec34359-5b90-4f48-8316-fd8f4d4037d2" d="M40.56,23.94v0L56.47,39.8,60.31,36l-23-23L32.35,8l-3.84,3.84,4.92,4.92c.17.17.32.35.47.53,1.91,2.31,2.1,5.47,1,8.72a14.55,14.55,0,0,1-3.68,5.46,14,14,0,0,1-8.56,4.26,7.61,7.61,0,0,1-6.12-2.1l-1.08-1.07,13-13L24.63,15.7h0L7.8,32.53l3.85,3.85h0l1.07,1.08c2.66,2.65,6.41,3.74,10.61,3.35A18.15,18.15,0,0,0,34.81,35a21.38,21.38,0,0,0,3.87-5.28A18.33,18.33,0,0,0,40.56,23.94Z"/></svg>