<svg id="57cf94da-4bf3-42b8-9785-95e09791af3f" data-name="Layer 1" xmlns="http://www.w3.org/2000/svg" viewBox="0 0 595.28 156.58"><title>Artboard 5</title><path d="M186.36,68.7A25.19,25.19,0,0,1,161.1,93.82H149V56.49h6.18V87.65h5.84a19,19,0,0,0,0-38H149V43.51h12.06a25.19,25.19,0,0,1,25.26,25.12Z"/><path d="M203.46,93.82h-6.18V43.51h6.18Z"/><path d="M222.53,60a18.64,18.64,0,0,0-2.13,8.72,19,19,0,0,0,18.95,19h9.07V71.79h-14V65.61H254.5V93.82H239.35a25.13,25.13,0,0,1-21.59-38,26.61,26.61,0,0,1,3.84-4.94,25.11,25.11,0,0,1,17.78-7.34h15.27v6.18H239.38a19.75,19.75,0,0,0-5.35.75A19.15,19.15,0,0,0,222.53,60Z"/><path d="M275.41,93.82h-6.18V43.51h6.18Z"/><path d="M320.13,49.69H286.7V43.51h33.43ZM306.67,93.82h-6.14V55.87h6.18Z"/><path d="M407.67,87.65v6.17H374.24V43.51h6.18V87.65Z"/><path d="M422.63,49.69V65.61h13.8v6.18h-13.8V87.65h27.25v6.17H416.45V43.51h33.43v6.18Z"/><path d="M496.77,43.51V93.82L490.59,87,459.7,52.77V43.51l30.89,34.32V43.51ZM459.7,62l6.18,6.86v25H459.7Z"/><path d="M538.92,49.69H505.46V43.51h33.43ZM525.46,93.82h-6.18V55.87h6.18Z"/><path d="M560.47,49.69a7.83,7.83,0,0,0-7.89,7.79v.24a7.89,7.89,0,0,0,7.89,7.89h3a14.53,14.53,0,0,1,8.79,3.09,14,14,0,0,1,5.22,10.91v.14a14,14,0,0,1-14,14.07H546.45V87.65h17.09a7.84,7.84,0,0,0,7.82-7.84v-.2a7.91,7.91,0,0,0-7.89-7.89h-3.3a14,14,0,0,1-13.8-14v-.14a14.09,14.09,0,0,1,14.08-14.07h17v6.18Z"/><polygon points="318.45 105.36 320.05 105.36 362.04 105.36 363.64 105.36 364.31 106.81 374.55 128.96 382.12 128.96 354.18 68.76 350.44 76.83 358.8 94.9 360.44 98.45 356.53 98.45 325.59 98.45 321.67 98.45 323.32 94.9 338.81 61.62 344.92 48.66 341.1 40.47 336.86 49.71 299.89 128.96 307.48 128.96 317.78 106.81 318.45 105.36"/><rect x="49.05" y="90.9" width="51.02" height="11.66" transform="translate(-46.56 81.06) rotate(-45)"/><path d="M86.29,55.87v-.1l34.09,34.09,8.24-8.24L79.22,32.21,68.68,21.66,60.43,29.9,71,40.45c.36.36.69.74,1,1.13,4.09,5,4.5,11.73,2.21,18.7-1.41,4.25-4.32,8.1-7.9,11.71C60.8,77.49,54.13,80.65,48,81.12a16.27,16.27,0,0,1-13.11-4.5l-2.31-2.31L60.38,46.45,52.13,38.2h0L16.05,74.29l8.24,8.24h0l2.31,2.31c5.69,5.69,13.74,8,22.74,7.19,9.81-.88,17.68-5.46,24.6-12.4a45.25,45.25,0,0,0,8.3-11.32A39.32,39.32,0,0,0,86.29,55.87Z"/><path d="M402.57,104.84v4.36a10.21,10.21,0,0,0-6.6-2.67,8.42,8.42,0,0,0-6.34,2.7A9.09,9.09,0,0,0,387,115.8a8.88,8.88,0,0,0,2.59,6.48,8.55,8.55,0,0,0,6.35,2.64,7.77,7.77,0,0,0,3.3-.63,9.58,9.58,0,0,0,1.58-.86,20.19,20.19,0,0,0,1.71-1.29v4.44a13.31,13.31,0,0,1-6.64,1.78,12.24,12.24,0,0,1-8.92-3.65,12.06,12.06,0,0,1-3.68-8.88,12.52,12.52,0,0,1,3.08-8.31,12.27,12.27,0,0,1,9.81-4.47A12.45,12.45,0,0,1,402.57,104.84Z"/><path d="M422.13,122H411.68L409,127.92h-4L417.07,102l11.65,25.93h-4Zm-1.5-3.46-3.62-8.3-3.79,8.3Z"/><path d="M431.76,127.92V103.53h5.12a18.8,18.8,0,0,1,5.82.72,11,11,0,0,1,4.15,2.42,11.66,11.66,0,0,1,3.78,9,11.53,11.53,0,0,1-3.94,9.1,11.33,11.33,0,0,1-4.14,2.42,18.83,18.83,0,0,1-5.73.68Zm3.69-3.46h1.65a13.81,13.81,0,0,0,4.13-.52,8.51,8.51,0,0,0,3-1.76,8.33,8.33,0,0,0,2.72-6.46,8.5,8.5,0,0,0-2.69-6.51Q441.82,107,437.1,107h-1.65Z"/><path d="M468.72,107h-9.78v5.86h9.49v3.46h-9.49v8.15h9.78v3.46H455.26V103.53h13.46Z"/><path d="M472.7,127.92l5.13-26.23,8.38,19,8.67-19,4.61,26.23h-3.77l-2.36-14.72L486.14,129l-7-15.86-2.62,14.74Z"/><path d="M509.59,117.38l-8-13.85h4.24l5.57,9.74,5.6-9.74h4.23l-8,13.85v10.54h-3.68Z"/></svg>