<svg xmlns="http://www.w3.org/2000/svg" viewBox="0 0 432.46 57.15"><defs><style>.cls-1{fill:#0000BF;}</style></defs><title>Asset 1</title><g id="Layer_2" data-name="Layer 2"><g id="Layer_1-2" data-name="Layer 1"><path class="cls-1" d="M432.46,57.15V2.39H432c-4.5,0-4.5-2.39-9-2.39s-4.5,2.39-9,2.39S409.53,0,405,0s-4.49,2.39-9,2.39S391.55,0,387.05,0s-4.49,2.39-9,2.39S373.57,0,369.07,0s-4.49,2.39-9,2.39-4.5-2.39-9-2.39-4.5,2.39-9,2.39S337.6,0,333.11,0s-4.5,2.39-9,2.39S319.63,0,315.13,0s-4.49,2.39-9,2.39S301.65,0,297.15,0s-4.5,2.39-9,2.39-4.5-2.39-9-2.39-4.5,2.39-9,2.39-4.5-2.39-9-2.39-4.5,2.39-9,2.39S247.7,0,243.21,0s-4.5,2.39-9,2.39S229.72,0,225.22,0s-4.49,2.39-9,2.39h-.46c-4.49,0-4.49-2.39-9-2.39s-4.49,2.39-9,2.39S193.3,0,188.8,0s-4.49,2.39-9,2.39S175.32,0,170.82,0s-4.49,2.39-9,2.39-4.5-2.39-9-2.39-4.5,2.39-9,2.39-4.5-2.39-9-2.39-4.5,2.39-9,2.39-4.5-2.39-9-2.39-4.5,2.39-9,2.39S103.4,0,98.9,0s-4.49,2.39-9,2.39S85.41,0,80.92,0s-4.5,2.39-9,2.39S67.43,0,62.94,0s-4.5,2.39-9,2.39S49.45,0,45,0s-4.5,2.39-9,2.39S31.47,0,27,0s-4.49,2.39-9,2.39S13.49,0,9,0,4.5,2.39,0,2.39H.37V57.15Z"/></g></g></svg>