<svg id="fcd53d52-89a5-4584-8b35-5f9d744f49ea" data-name="Layer 1" xmlns="http://www.w3.org/2000/svg" viewBox="0 0 197.76 60"><title>Artboard 11</title><path d="M81.23,35.39H73.46l-2,4.44h-3l9-19.43,8.66,19.43h-3ZM80.11,32.8l-2.69-6.22L74.6,32.8Z"/><path d="M101,22.53V25.8a7.58,7.58,0,0,0-4.91-2,6.24,6.24,0,0,0-4.71,2,6.86,6.86,0,0,0-1.93,4.92,6.72,6.72,0,0,0,1.93,4.86,6.36,6.36,0,0,0,4.72,2,5.68,5.68,0,0,0,2.46-.47,7.22,7.22,0,0,0,1.17-.64,13.47,13.47,0,0,0,1.27-1v3.33A9.81,9.81,0,0,1,96,40.16a9.34,9.34,0,0,1-9.38-9.38,9.46,9.46,0,0,1,2.29-6.23,9.09,9.09,0,0,1,7.3-3.35A9.2,9.2,0,0,1,101,22.53Z"/><path d="M115.5,35.39h-7.77l-2,4.44h-2.95l9-19.43,8.66,19.43h-3Zm-1.12-2.59-2.69-6.22-2.82,6.22Z"/><path d="M122.67,39.83V21.55h3.8a13.57,13.57,0,0,1,4.33.55,8,8,0,0,1,3.09,1.81,8.78,8.78,0,0,1,2.81,6.78,8.69,8.69,0,0,1-2.93,6.82,8.4,8.4,0,0,1-3.08,1.81,13.84,13.84,0,0,1-4.26.51Zm2.73-2.59h1.24a10.17,10.17,0,0,0,3.06-.39,6,6,0,0,0,2.21-1.32,6.24,6.24,0,0,0,2-4.84,6.39,6.39,0,0,0-2-4.88,7.55,7.55,0,0,0-5.3-1.67H125.4Z"/><path d="M150.15,24.14h-7.27v4.4h7.06v2.59h-7.06v6.11h7.27v2.59h-10V21.55h10Z"/><path d="M153.11,39.83l3.82-19.65,6.23,14.21,6.45-14.21L173,39.83h-2.81l-1.75-11-5.37,11.87-5.22-11.88-1.95,11Z"/><path d="M180.55,31.94l-5.93-10.39h3.15l4.15,7.31,4.16-7.31h3.15l-5.95,10.39v7.89h-2.73Z"/><rect x="23.2" y="39.62" width="23.8" height="5.44" transform="translate(-19.66 37.22) rotate(-45)"/><path d="M40.56,23.28v0l15.91,15.9,3.84-3.85-23-23L32.35,7.32l-3.84,3.85,4.92,4.92c.17.17.32.35.47.53,1.91,2.31,2.1,5.47,1,8.72a14.55,14.55,0,0,1-3.68,5.46,14,14,0,0,1-8.56,4.26A7.61,7.61,0,0,1,16.57,33l-1.08-1.08,13-13L24.63,15h0L7.8,31.87l3.85,3.85h0l1.07,1.07c2.66,2.66,6.41,3.75,10.61,3.36a18.17,18.17,0,0,0,11.48-5.79,21.15,21.15,0,0,0,3.87-5.27A18.33,18.33,0,0,0,40.56,23.28Z"/></svg>