<?xml version="1.0" encoding="utf-8"?>
<!-- Generator: Adobe Illustrator 22.0.1, SVG Export Plug-In . SVG Version: 6.00 Build 0)  -->
<svg version="1.1" id="Layer_1" xmlns="http://www.w3.org/2000/svg" xmlns:xlink="http://www.w3.org/1999/xlink" x="0px" y="0px"
	 viewBox="0 0 1000 1000" style="enable-background:new 0 0 1000 1000;" xml:space="preserve">
<style type="text/css">
	.st0{fill:#FFFFFF;}
	.st1{fill:#EFC51F;}
	.st2{fill:#08415C;}
	.st3{fill:none;stroke:#B3B3B3;stroke-width:3;stroke-miterlimit:10;}
</style>
<rect class="st0" width="1000" height="1000"/>
<path class="st1" d="M461.6,480.1"/>
<path class="st1" d="M662.6,509.5"/>
<g>
	<polygon class="st1" points="541.8,102.3 541.8,32.7 512.4,32.7 512.4,15.7 353.2,15.7 353.2,77.6 297.6,77.6 297.6,106.9 
		262,106.9 262,406.8 240.4,406.8 240.4,576.8 139.9,576.8 139.9,972.6 217.2,972.6 217.2,946.3 347,946.3 347,972.6 441.3,972.6 
		441.3,799.4 347,801 347,822.6 277.5,822.6 251.2,822.6 237.3,822.6 231.1,822.6 228,822.6 224.9,822.6 224.9,733 224.9,674.2 
		444.4,674.2 444.4,572.2 356.1,573.7 356.3,544.4 348.6,544.4 348.6,266.1 362.5,266.1 362.5,198.1 387.2,198.1 387.2,140.9 
		415.1,140.9 415.1,103.8 442.9,103.8 442.9,114.7 501.6,114.7 501.6,102.3 	"/>
	<polyline class="st1" points="139.9,824.9 126,824.9 126,787.1 139.9,787.1 	"/>
	<polyline class="st1" points="405.8,15.7 405.8,8 512.4,8 512.4,15.7 	"/>
</g>
<polyline class="st2" points="586.5,101.4 595.8,101.4 595.8,135.5 580.3,135.5 580.3,171 595.8,171 595.8,192.6 736.4,192.6 
	736.4,313.2 595.8,313.2 595.8,334.9 580.3,334.9 580.3,372 595.8,372 595.8,393.6 736.4,393.6 736.4,419.9 809.1,419.9 
	809.1,535.8 687,535.8 687,517.3 583,517.8 583,563.8 568.4,563.8 568.4,585.2 583.4,585.3 583.4,628.5 687,628.5 687,605.4 
	809.1,605.4 809.1,622.4 867.8,622.4 867.8,518.8 838.4,518.8 838.4,328.7 821.4,328.7 821.4,293.1 874,293.1 874,203.5 823,203.5 
	823,169.5 836.9,169.5 836.9,78.3 736.4,78.3 736.4,103 642.1,103 642.1,33.4 586.5,33.4 "/>
<g>
	<polygon class="st1" points="837,869.6 765.9,877 755.3,868.9 766,861 	"/>
	<polygon class="st1" points="755.3,951 747.3,879.9 755.3,869.2 763.2,879.9 	"/>
	<polygon class="st1" points="755.3,787.5 763.2,858.6 755.3,869.2 747.3,858.6 	"/>
	<polygon class="st1" points="673.5,869.2 744.6,861.3 755.3,869.2 744.6,877.2 	"/>
</g>
<g>
	<polygon class="st2" points="222.9,786.9 234.7,810.7 261,814.5 241.9,833.1 246.4,859.3 222.9,847 199.3,859.3 203.8,833.1 
		184.8,814.5 211.1,810.7 	"/>
</g>
<g>
	<path class="st3" d="M239.5,805.5c0-47,123-85,275-85"/>
</g>
<line class="st3" x1="568.5" y1="-0.5" x2="494.5" y2="999.5"/>
<polygon class="st2" points="735,747 735,787 745.5,787 745.5,762.4 765.2,787 775,787 775,747 765.2,747 765.2,771 745.5,747 "/>
</svg>
